M48
; DRILL file {KiCad 5.1.10-88a1d61d58~90~ubuntu20.04.1} date Sat Jul 31 22:23:26 2021
; FORMAT={-:-/ absolute / inch / decimal}
; #@! TF.CreationDate,2021-07-31T22:23:26+02:00
; #@! TF.GenerationSoftware,Kicad,Pcbnew,5.1.10-88a1d61d58~90~ubuntu20.04.1
FMAT,2
INCH
T1C0.0157
T2C0.0394
%
G90
G05
T1
X5.45Y-2.73
X5.5975Y-3.55
X5.615Y-2.55
X5.615Y-2.66
X5.615Y-2.77
X5.615Y-2.88
X5.65Y-2.895
X5.6525Y-3.55
X5.655Y-4.2
X5.655Y-4.2
X5.655Y-4.2
X5.655Y-4.2
X5.7Y-3.32
X5.735Y-2.55
X5.735Y-2.66
X5.735Y-2.77
X5.735Y-2.895
X5.845Y-2.55
X5.845Y-2.66
X5.845Y-2.77
X5.845Y-2.895
X5.88Y-3.32
X5.93Y-2.895
X5.965Y-2.55
X5.965Y-2.66
X5.965Y-2.77
X5.965Y-2.88
T2
X5.49Y-3.105
X5.49Y-3.205
X5.49Y-3.305
X5.49Y-3.405
X5.49Y-3.505
X5.49Y-3.605
X5.49Y-3.705
X5.49Y-3.805
X5.49Y-3.905
X5.49Y-4.005
X5.49Y-4.105
X5.49Y-4.205
X6.09Y-3.105
X6.09Y-3.205
X6.09Y-3.305
X6.09Y-3.405
X6.09Y-3.505
X6.09Y-3.605
X6.09Y-3.705
X6.09Y-3.805
X6.09Y-3.905
X6.09Y-4.005
X6.09Y-4.105
X6.09Y-4.205
T0
M30
