%TF.GenerationSoftware,KiCad,Pcbnew,5.1.10-88a1d61d58~90~ubuntu20.04.1*%
%TF.CreationDate,2021-07-31T22:23:30+02:00*%
%TF.ProjectId,dwm_nano_shield,64776d5f-6e61-46e6-9f5f-736869656c64,rev?*%
%TF.SameCoordinates,Original*%
%TF.FileFunction,Legend,Top*%
%TF.FilePolarity,Positive*%
%FSLAX46Y46*%
G04 Gerber Fmt 4.6, Leading zero omitted, Abs format (unit mm)*
G04 Created by KiCad (PCBNEW 5.1.10-88a1d61d58~90~ubuntu20.04.1) date 2021-07-31 22:23:30*
%MOMM*%
%LPD*%
G01*
G04 APERTURE LIST*
%ADD10C,0.150000*%
%ADD11C,0.120000*%
G04 APERTURE END LIST*
D10*
X142017714Y-71699380D02*
X141446285Y-71699380D01*
X141732000Y-71699380D02*
X141732000Y-70699380D01*
X141636761Y-70842238D01*
X141541523Y-70937476D01*
X141446285Y-70985095D01*
X157932380Y-101837761D02*
X156932380Y-101837761D01*
X157551428Y-101742523D02*
X157932380Y-101456809D01*
X157265714Y-101456809D02*
X157646666Y-101837761D01*
X157932380Y-101028238D02*
X157265714Y-101028238D01*
X157456190Y-101028238D02*
X157360952Y-100980619D01*
X157313333Y-100933000D01*
X157265714Y-100837761D01*
X157265714Y-100742523D01*
X157932380Y-100266333D02*
X157884761Y-100361571D01*
X157837142Y-100409190D01*
X157741904Y-100456809D01*
X157456190Y-100456809D01*
X157360952Y-100409190D01*
X157313333Y-100361571D01*
X157265714Y-100266333D01*
X157265714Y-100123476D01*
X157313333Y-100028238D01*
X157360952Y-99980619D01*
X157456190Y-99933000D01*
X157741904Y-99933000D01*
X157837142Y-99980619D01*
X157884761Y-100028238D01*
X157932380Y-100123476D01*
X157932380Y-100266333D01*
X157932380Y-99504428D02*
X157265714Y-99504428D01*
X157360952Y-99504428D02*
X157313333Y-99456809D01*
X157265714Y-99361571D01*
X157265714Y-99218714D01*
X157313333Y-99123476D01*
X157408571Y-99075857D01*
X157932380Y-99075857D01*
X157408571Y-99075857D02*
X157313333Y-99028238D01*
X157265714Y-98933000D01*
X157265714Y-98790142D01*
X157313333Y-98694904D01*
X157408571Y-98647285D01*
X157932380Y-98647285D01*
X157932380Y-97742523D02*
X157408571Y-97742523D01*
X157313333Y-97790142D01*
X157265714Y-97885380D01*
X157265714Y-98075857D01*
X157313333Y-98171095D01*
X157884761Y-97742523D02*
X157932380Y-97837761D01*
X157932380Y-98075857D01*
X157884761Y-98171095D01*
X157789523Y-98218714D01*
X157694285Y-98218714D01*
X157599047Y-98171095D01*
X157551428Y-98075857D01*
X157551428Y-97837761D01*
X157503809Y-97742523D01*
X157884761Y-97313952D02*
X157932380Y-97218714D01*
X157932380Y-97028238D01*
X157884761Y-96933000D01*
X157789523Y-96885380D01*
X157741904Y-96885380D01*
X157646666Y-96933000D01*
X157599047Y-97028238D01*
X157599047Y-97171095D01*
X157551428Y-97266333D01*
X157456190Y-97313952D01*
X157408571Y-97313952D01*
X157313333Y-97266333D01*
X157265714Y-97171095D01*
X157265714Y-97028238D01*
X157313333Y-96933000D01*
X157932380Y-96456809D02*
X156932380Y-96456809D01*
X157932380Y-96028238D02*
X157408571Y-96028238D01*
X157313333Y-96075857D01*
X157265714Y-96171095D01*
X157265714Y-96313952D01*
X157313333Y-96409190D01*
X157360952Y-96456809D01*
D11*
%TO.C,R4*%
X148636258Y-106157500D02*
X148161742Y-106157500D01*
X148636258Y-107202500D02*
X148161742Y-107202500D01*
%TO.C,D3*%
X143930000Y-107415000D02*
X146215000Y-107415000D01*
X143930000Y-105945000D02*
X143930000Y-107415000D01*
X146215000Y-105945000D02*
X143930000Y-105945000D01*
%TO.C,P2*%
X153356000Y-80137000D02*
X156016000Y-80137000D01*
X153356000Y-80137000D02*
X153356000Y-108137000D01*
X153356000Y-108137000D02*
X156016000Y-108137000D01*
X156016000Y-80137000D02*
X156016000Y-108137000D01*
X156016000Y-77537000D02*
X156016000Y-78867000D01*
X154686000Y-77537000D02*
X156016000Y-77537000D01*
%TO.C,P1*%
X138116000Y-80137000D02*
X140776000Y-80137000D01*
X138116000Y-80137000D02*
X138116000Y-108137000D01*
X138116000Y-108137000D02*
X140776000Y-108137000D01*
X140776000Y-80137000D02*
X140776000Y-108137000D01*
X140776000Y-77537000D02*
X140776000Y-78867000D01*
X139446000Y-77537000D02*
X140776000Y-77537000D01*
%TO.C,D2*%
X150150500Y-83908000D02*
X150150500Y-81623000D01*
X148680500Y-83908000D02*
X150150500Y-83908000D01*
X148680500Y-81623000D02*
X148680500Y-83908000D01*
%TO.C,D1*%
X145451500Y-83933500D02*
X145451500Y-81648500D01*
X143981500Y-83933500D02*
X145451500Y-83933500D01*
X143981500Y-81648500D02*
X143981500Y-83933500D01*
%TO.C,C1*%
X138940000Y-71120580D02*
X138940000Y-70839420D01*
X137920000Y-71120580D02*
X137920000Y-70839420D01*
%TO.C,R3*%
X145779258Y-79678000D02*
X145304742Y-79678000D01*
X145779258Y-80723000D02*
X145304742Y-80723000D01*
%TO.C,R2*%
X148352742Y-80723000D02*
X148827258Y-80723000D01*
X148352742Y-79678000D02*
X148827258Y-79678000D01*
%TO.C,R1*%
X155179500Y-66564742D02*
X155179500Y-67039258D01*
X156224500Y-66564742D02*
X156224500Y-67039258D01*
D10*
%TO.C,DWM1*%
X141066000Y-75885000D02*
X140316000Y-75885000D01*
X140316000Y-75885000D02*
X140316000Y-74135000D01*
X153066000Y-75885000D02*
X153816000Y-75885000D01*
X153816000Y-75885000D02*
X153816000Y-74135000D01*
X140316000Y-52385000D02*
X153816000Y-52385000D01*
X153816000Y-52385000D02*
X153816000Y-62385000D01*
X140316000Y-52385000D02*
X140316000Y-62385000D01*
%TO.C,R4*%
X148232333Y-105735380D02*
X147899000Y-105259190D01*
X147660904Y-105735380D02*
X147660904Y-104735380D01*
X148041857Y-104735380D01*
X148137095Y-104783000D01*
X148184714Y-104830619D01*
X148232333Y-104925857D01*
X148232333Y-105068714D01*
X148184714Y-105163952D01*
X148137095Y-105211571D01*
X148041857Y-105259190D01*
X147660904Y-105259190D01*
X149089476Y-105068714D02*
X149089476Y-105735380D01*
X148851380Y-104687761D02*
X148613285Y-105402047D01*
X149232333Y-105402047D01*
%TO.C,D3*%
X144676904Y-105702380D02*
X144676904Y-104702380D01*
X144915000Y-104702380D01*
X145057857Y-104750000D01*
X145153095Y-104845238D01*
X145200714Y-104940476D01*
X145248333Y-105130952D01*
X145248333Y-105273809D01*
X145200714Y-105464285D01*
X145153095Y-105559523D01*
X145057857Y-105654761D01*
X144915000Y-105702380D01*
X144676904Y-105702380D01*
X145581666Y-104702380D02*
X146200714Y-104702380D01*
X145867380Y-105083333D01*
X146010238Y-105083333D01*
X146105476Y-105130952D01*
X146153095Y-105178571D01*
X146200714Y-105273809D01*
X146200714Y-105511904D01*
X146153095Y-105607142D01*
X146105476Y-105654761D01*
X146010238Y-105702380D01*
X145724523Y-105702380D01*
X145629285Y-105654761D01*
X145581666Y-105607142D01*
%TO.C,P2*%
X153947904Y-77033380D02*
X153947904Y-76033380D01*
X154328857Y-76033380D01*
X154424095Y-76081000D01*
X154471714Y-76128619D01*
X154519333Y-76223857D01*
X154519333Y-76366714D01*
X154471714Y-76461952D01*
X154424095Y-76509571D01*
X154328857Y-76557190D01*
X153947904Y-76557190D01*
X154900285Y-76128619D02*
X154947904Y-76081000D01*
X155043142Y-76033380D01*
X155281238Y-76033380D01*
X155376476Y-76081000D01*
X155424095Y-76128619D01*
X155471714Y-76223857D01*
X155471714Y-76319095D01*
X155424095Y-76461952D01*
X154852666Y-77033380D01*
X155471714Y-77033380D01*
%TO.C,P1*%
X138707904Y-77033380D02*
X138707904Y-76033380D01*
X139088857Y-76033380D01*
X139184095Y-76081000D01*
X139231714Y-76128619D01*
X139279333Y-76223857D01*
X139279333Y-76366714D01*
X139231714Y-76461952D01*
X139184095Y-76509571D01*
X139088857Y-76557190D01*
X138707904Y-76557190D01*
X140231714Y-77033380D02*
X139660285Y-77033380D01*
X139946000Y-77033380D02*
X139946000Y-76033380D01*
X139850761Y-76176238D01*
X139755523Y-76271476D01*
X139660285Y-76319095D01*
%TO.C,D2*%
X148437880Y-83161095D02*
X147437880Y-83161095D01*
X147437880Y-82923000D01*
X147485500Y-82780142D01*
X147580738Y-82684904D01*
X147675976Y-82637285D01*
X147866452Y-82589666D01*
X148009309Y-82589666D01*
X148199785Y-82637285D01*
X148295023Y-82684904D01*
X148390261Y-82780142D01*
X148437880Y-82923000D01*
X148437880Y-83161095D01*
X147533119Y-82208714D02*
X147485500Y-82161095D01*
X147437880Y-82065857D01*
X147437880Y-81827761D01*
X147485500Y-81732523D01*
X147533119Y-81684904D01*
X147628357Y-81637285D01*
X147723595Y-81637285D01*
X147866452Y-81684904D01*
X148437880Y-82256333D01*
X148437880Y-81637285D01*
%TO.C,D1*%
X143738880Y-83186595D02*
X142738880Y-83186595D01*
X142738880Y-82948500D01*
X142786500Y-82805642D01*
X142881738Y-82710404D01*
X142976976Y-82662785D01*
X143167452Y-82615166D01*
X143310309Y-82615166D01*
X143500785Y-82662785D01*
X143596023Y-82710404D01*
X143691261Y-82805642D01*
X143738880Y-82948500D01*
X143738880Y-83186595D01*
X143738880Y-81662785D02*
X143738880Y-82234214D01*
X143738880Y-81948500D02*
X142738880Y-81948500D01*
X142881738Y-82043738D01*
X142976976Y-82138976D01*
X143024595Y-82234214D01*
%TO.C,C1*%
X137357142Y-71146666D02*
X137404761Y-71194285D01*
X137452380Y-71337142D01*
X137452380Y-71432380D01*
X137404761Y-71575238D01*
X137309523Y-71670476D01*
X137214285Y-71718095D01*
X137023809Y-71765714D01*
X136880952Y-71765714D01*
X136690476Y-71718095D01*
X136595238Y-71670476D01*
X136500000Y-71575238D01*
X136452380Y-71432380D01*
X136452380Y-71337142D01*
X136500000Y-71194285D01*
X136547619Y-71146666D01*
X137452380Y-70194285D02*
X137452380Y-70765714D01*
X137452380Y-70480000D02*
X136452380Y-70480000D01*
X136595238Y-70575238D01*
X136690476Y-70670476D01*
X136738095Y-70765714D01*
%TO.C,R3*%
X145375333Y-79446380D02*
X145042000Y-78970190D01*
X144803904Y-79446380D02*
X144803904Y-78446380D01*
X145184857Y-78446380D01*
X145280095Y-78494000D01*
X145327714Y-78541619D01*
X145375333Y-78636857D01*
X145375333Y-78779714D01*
X145327714Y-78874952D01*
X145280095Y-78922571D01*
X145184857Y-78970190D01*
X144803904Y-78970190D01*
X145708666Y-78446380D02*
X146327714Y-78446380D01*
X145994380Y-78827333D01*
X146137238Y-78827333D01*
X146232476Y-78874952D01*
X146280095Y-78922571D01*
X146327714Y-79017809D01*
X146327714Y-79255904D01*
X146280095Y-79351142D01*
X146232476Y-79398761D01*
X146137238Y-79446380D01*
X145851523Y-79446380D01*
X145756285Y-79398761D01*
X145708666Y-79351142D01*
%TO.C,R2*%
X148423333Y-79222880D02*
X148090000Y-78746690D01*
X147851904Y-79222880D02*
X147851904Y-78222880D01*
X148232857Y-78222880D01*
X148328095Y-78270500D01*
X148375714Y-78318119D01*
X148423333Y-78413357D01*
X148423333Y-78556214D01*
X148375714Y-78651452D01*
X148328095Y-78699071D01*
X148232857Y-78746690D01*
X147851904Y-78746690D01*
X148804285Y-78318119D02*
X148851904Y-78270500D01*
X148947142Y-78222880D01*
X149185238Y-78222880D01*
X149280476Y-78270500D01*
X149328095Y-78318119D01*
X149375714Y-78413357D01*
X149375714Y-78508595D01*
X149328095Y-78651452D01*
X148756666Y-79222880D01*
X149375714Y-79222880D01*
%TO.C,R1*%
X157584380Y-66968666D02*
X157108190Y-67302000D01*
X157584380Y-67540095D02*
X156584380Y-67540095D01*
X156584380Y-67159142D01*
X156632000Y-67063904D01*
X156679619Y-67016285D01*
X156774857Y-66968666D01*
X156917714Y-66968666D01*
X157012952Y-67016285D01*
X157060571Y-67063904D01*
X157108190Y-67159142D01*
X157108190Y-67540095D01*
X157584380Y-66016285D02*
X157584380Y-66587714D01*
X157584380Y-66302000D02*
X156584380Y-66302000D01*
X156727238Y-66397238D01*
X156822476Y-66492476D01*
X156870095Y-66587714D01*
%TO.C,DWM1*%
X141121047Y-78049380D02*
X141121047Y-77049380D01*
X141359142Y-77049380D01*
X141502000Y-77097000D01*
X141597238Y-77192238D01*
X141644857Y-77287476D01*
X141692476Y-77477952D01*
X141692476Y-77620809D01*
X141644857Y-77811285D01*
X141597238Y-77906523D01*
X141502000Y-78001761D01*
X141359142Y-78049380D01*
X141121047Y-78049380D01*
X142025809Y-77049380D02*
X142263904Y-78049380D01*
X142454380Y-77335095D01*
X142644857Y-78049380D01*
X142882952Y-77049380D01*
X143263904Y-78049380D02*
X143263904Y-77049380D01*
X143597238Y-77763666D01*
X143930571Y-77049380D01*
X143930571Y-78049380D01*
X144930571Y-78049380D02*
X144359142Y-78049380D01*
X144644857Y-78049380D02*
X144644857Y-77049380D01*
X144549619Y-77192238D01*
X144454380Y-77287476D01*
X144359142Y-77335095D01*
%TD*%
M02*
