%TF.GenerationSoftware,KiCad,Pcbnew,5.1.10-88a1d61d58~90~ubuntu20.04.1*%
%TF.CreationDate,2021-07-31T22:23:30+02:00*%
%TF.ProjectId,dwm_nano_shield,64776d5f-6e61-46e6-9f5f-736869656c64,rev?*%
%TF.SameCoordinates,Original*%
%TF.FileFunction,Copper,L2,Bot*%
%TF.FilePolarity,Positive*%
%FSLAX46Y46*%
G04 Gerber Fmt 4.6, Leading zero omitted, Abs format (unit mm)*
G04 Created by KiCad (PCBNEW 5.1.10-88a1d61d58~90~ubuntu20.04.1) date 2021-07-31 22:23:30*
%MOMM*%
%LPD*%
G01*
G04 APERTURE LIST*
%TA.AperFunction,ComponentPad*%
%ADD10O,1.700000X1.700000*%
%TD*%
%TA.AperFunction,ComponentPad*%
%ADD11R,1.700000X1.700000*%
%TD*%
%TA.AperFunction,ViaPad*%
%ADD12C,0.600000*%
%TD*%
%TA.AperFunction,Conductor*%
%ADD13C,0.250000*%
%TD*%
%TA.AperFunction,Conductor*%
%ADD14C,0.254000*%
%TD*%
%TA.AperFunction,Conductor*%
%ADD15C,0.100000*%
%TD*%
G04 APERTURE END LIST*
D10*
%TO.P,P2,12*%
%TO.N,/13*%
X154686000Y-106807000D03*
%TO.P,P2,11*%
%TO.N,+3V3*%
X154686000Y-104267000D03*
%TO.P,P2,10*%
%TO.N,/AREF*%
X154686000Y-101727000D03*
%TO.P,P2,9*%
%TO.N,/A0*%
X154686000Y-99187000D03*
%TO.P,P2,8*%
%TO.N,/A1*%
X154686000Y-96647000D03*
%TO.P,P2,7*%
%TO.N,/A2*%
X154686000Y-94107000D03*
%TO.P,P2,6*%
%TO.N,/A3*%
X154686000Y-91567000D03*
%TO.P,P2,5*%
%TO.N,/A4(SCK)*%
X154686000Y-89027000D03*
%TO.P,P2,4*%
%TO.N,/A5(MISO)*%
X154686000Y-86487000D03*
%TO.P,P2,3*%
%TO.N,/A6(MOSI)*%
X154686000Y-83947000D03*
%TO.P,P2,2*%
%TO.N,/A7(SS)*%
X154686000Y-81407000D03*
D11*
%TO.P,P2,1*%
%TO.N,Net-(P2-Pad1)*%
X154686000Y-78867000D03*
%TD*%
D10*
%TO.P,P1,12*%
%TO.N,/D12*%
X139446000Y-106807000D03*
%TO.P,P1,11*%
%TO.N,/D11*%
X139446000Y-104267000D03*
%TO.P,P1,10*%
%TO.N,/D10*%
X139446000Y-101727000D03*
%TO.P,P1,9*%
%TO.N,/D9*%
X139446000Y-99187000D03*
%TO.P,P1,8*%
%TO.N,/D8*%
X139446000Y-96647000D03*
%TO.P,P1,7*%
%TO.N,/D7*%
X139446000Y-94107000D03*
%TO.P,P1,6*%
%TO.N,/D6*%
X139446000Y-91567000D03*
%TO.P,P1,5*%
%TO.N,/D5*%
X139446000Y-89027000D03*
%TO.P,P1,4*%
%TO.N,/D4*%
X139446000Y-86487000D03*
%TO.P,P1,3*%
%TO.N,/D3*%
X139446000Y-83947000D03*
%TO.P,P1,2*%
%TO.N,/D2*%
X139446000Y-81407000D03*
D11*
%TO.P,P1,1*%
%TO.N,GND*%
X139446000Y-78867000D03*
%TD*%
D12*
%TO.N,GND*%
X144780000Y-84328000D03*
X149352000Y-84328000D03*
X138430000Y-69342000D03*
X151511000Y-73152000D03*
X150622000Y-73533000D03*
X145669000Y-73533000D03*
X151511000Y-67564000D03*
X151511000Y-64770000D03*
X142621000Y-73152000D03*
X148463000Y-73533000D03*
X142621000Y-70358000D03*
X142621000Y-67564000D03*
X142621000Y-64770000D03*
X151511000Y-70358000D03*
X148463000Y-70358000D03*
X145669000Y-70358000D03*
X148463000Y-67564000D03*
X145669000Y-67564000D03*
X148463000Y-64770000D03*
X145669000Y-64770000D03*
X143510000Y-73533000D03*
X143637000Y-106680000D03*
X143637000Y-106680000D03*
X143637000Y-106680000D03*
X143637000Y-106680000D03*
%TO.N,/D6*%
X142176500Y-90170000D03*
%TO.N,/D7*%
X143573500Y-90170000D03*
%TD*%
D13*
%TO.N,/D6*%
X140779500Y-91567000D02*
X139446000Y-91567000D01*
X142176500Y-90170000D02*
X140779500Y-91567000D01*
%TO.N,/D7*%
X139636500Y-94107000D02*
X139446000Y-94107000D01*
X143573500Y-90170000D02*
X139636500Y-94107000D01*
%TD*%
D14*
%TO.N,GND*%
X157811000Y-107900000D02*
X155693107Y-107900000D01*
X155839475Y-107753632D01*
X156001990Y-107510411D01*
X156113932Y-107240158D01*
X156171000Y-106953260D01*
X156171000Y-106660740D01*
X156113932Y-106373842D01*
X156001990Y-106103589D01*
X155839475Y-105860368D01*
X155632632Y-105653525D01*
X155458240Y-105537000D01*
X155632632Y-105420475D01*
X155839475Y-105213632D01*
X156001990Y-104970411D01*
X156113932Y-104700158D01*
X156171000Y-104413260D01*
X156171000Y-104120740D01*
X156113932Y-103833842D01*
X156001990Y-103563589D01*
X155839475Y-103320368D01*
X155632632Y-103113525D01*
X155458240Y-102997000D01*
X155632632Y-102880475D01*
X155839475Y-102673632D01*
X156001990Y-102430411D01*
X156113932Y-102160158D01*
X156171000Y-101873260D01*
X156171000Y-101580740D01*
X156113932Y-101293842D01*
X156001990Y-101023589D01*
X155839475Y-100780368D01*
X155632632Y-100573525D01*
X155458240Y-100457000D01*
X155632632Y-100340475D01*
X155839475Y-100133632D01*
X156001990Y-99890411D01*
X156113932Y-99620158D01*
X156171000Y-99333260D01*
X156171000Y-99040740D01*
X156113932Y-98753842D01*
X156001990Y-98483589D01*
X155839475Y-98240368D01*
X155632632Y-98033525D01*
X155458240Y-97917000D01*
X155632632Y-97800475D01*
X155839475Y-97593632D01*
X156001990Y-97350411D01*
X156113932Y-97080158D01*
X156171000Y-96793260D01*
X156171000Y-96500740D01*
X156113932Y-96213842D01*
X156001990Y-95943589D01*
X155839475Y-95700368D01*
X155632632Y-95493525D01*
X155458240Y-95377000D01*
X155632632Y-95260475D01*
X155839475Y-95053632D01*
X156001990Y-94810411D01*
X156113932Y-94540158D01*
X156171000Y-94253260D01*
X156171000Y-93960740D01*
X156113932Y-93673842D01*
X156001990Y-93403589D01*
X155839475Y-93160368D01*
X155632632Y-92953525D01*
X155458240Y-92837000D01*
X155632632Y-92720475D01*
X155839475Y-92513632D01*
X156001990Y-92270411D01*
X156113932Y-92000158D01*
X156171000Y-91713260D01*
X156171000Y-91420740D01*
X156113932Y-91133842D01*
X156001990Y-90863589D01*
X155839475Y-90620368D01*
X155632632Y-90413525D01*
X155458240Y-90297000D01*
X155632632Y-90180475D01*
X155839475Y-89973632D01*
X156001990Y-89730411D01*
X156113932Y-89460158D01*
X156171000Y-89173260D01*
X156171000Y-88880740D01*
X156113932Y-88593842D01*
X156001990Y-88323589D01*
X155839475Y-88080368D01*
X155632632Y-87873525D01*
X155458240Y-87757000D01*
X155632632Y-87640475D01*
X155839475Y-87433632D01*
X156001990Y-87190411D01*
X156113932Y-86920158D01*
X156171000Y-86633260D01*
X156171000Y-86340740D01*
X156113932Y-86053842D01*
X156001990Y-85783589D01*
X155839475Y-85540368D01*
X155632632Y-85333525D01*
X155458240Y-85217000D01*
X155632632Y-85100475D01*
X155839475Y-84893632D01*
X156001990Y-84650411D01*
X156113932Y-84380158D01*
X156171000Y-84093260D01*
X156171000Y-83800740D01*
X156113932Y-83513842D01*
X156001990Y-83243589D01*
X155839475Y-83000368D01*
X155632632Y-82793525D01*
X155458240Y-82677000D01*
X155632632Y-82560475D01*
X155839475Y-82353632D01*
X156001990Y-82110411D01*
X156113932Y-81840158D01*
X156171000Y-81553260D01*
X156171000Y-81260740D01*
X156113932Y-80973842D01*
X156001990Y-80703589D01*
X155839475Y-80460368D01*
X155707620Y-80328513D01*
X155780180Y-80306502D01*
X155890494Y-80247537D01*
X155987185Y-80168185D01*
X156066537Y-80071494D01*
X156125502Y-79961180D01*
X156161812Y-79841482D01*
X156174072Y-79717000D01*
X156174072Y-78017000D01*
X156161812Y-77892518D01*
X156125502Y-77772820D01*
X156066537Y-77662506D01*
X155987185Y-77565815D01*
X155890494Y-77486463D01*
X155780180Y-77427498D01*
X155660482Y-77391188D01*
X155536000Y-77378928D01*
X153836000Y-77378928D01*
X153711518Y-77391188D01*
X153591820Y-77427498D01*
X153481506Y-77486463D01*
X153384815Y-77565815D01*
X153305463Y-77662506D01*
X153246498Y-77772820D01*
X153210188Y-77892518D01*
X153197928Y-78017000D01*
X153197928Y-79717000D01*
X153210188Y-79841482D01*
X153246498Y-79961180D01*
X153305463Y-80071494D01*
X153384815Y-80168185D01*
X153481506Y-80247537D01*
X153591820Y-80306502D01*
X153664380Y-80328513D01*
X153532525Y-80460368D01*
X153370010Y-80703589D01*
X153258068Y-80973842D01*
X153201000Y-81260740D01*
X153201000Y-81553260D01*
X153258068Y-81840158D01*
X153370010Y-82110411D01*
X153532525Y-82353632D01*
X153739368Y-82560475D01*
X153913760Y-82677000D01*
X153739368Y-82793525D01*
X153532525Y-83000368D01*
X153370010Y-83243589D01*
X153258068Y-83513842D01*
X153201000Y-83800740D01*
X153201000Y-84093260D01*
X153258068Y-84380158D01*
X153370010Y-84650411D01*
X153532525Y-84893632D01*
X153739368Y-85100475D01*
X153913760Y-85217000D01*
X153739368Y-85333525D01*
X153532525Y-85540368D01*
X153370010Y-85783589D01*
X153258068Y-86053842D01*
X153201000Y-86340740D01*
X153201000Y-86633260D01*
X153258068Y-86920158D01*
X153370010Y-87190411D01*
X153532525Y-87433632D01*
X153739368Y-87640475D01*
X153913760Y-87757000D01*
X153739368Y-87873525D01*
X153532525Y-88080368D01*
X153370010Y-88323589D01*
X153258068Y-88593842D01*
X153201000Y-88880740D01*
X153201000Y-89173260D01*
X153258068Y-89460158D01*
X153370010Y-89730411D01*
X153532525Y-89973632D01*
X153739368Y-90180475D01*
X153913760Y-90297000D01*
X153739368Y-90413525D01*
X153532525Y-90620368D01*
X153370010Y-90863589D01*
X153258068Y-91133842D01*
X153201000Y-91420740D01*
X153201000Y-91713260D01*
X153258068Y-92000158D01*
X153370010Y-92270411D01*
X153532525Y-92513632D01*
X153739368Y-92720475D01*
X153913760Y-92837000D01*
X153739368Y-92953525D01*
X153532525Y-93160368D01*
X153370010Y-93403589D01*
X153258068Y-93673842D01*
X153201000Y-93960740D01*
X153201000Y-94253260D01*
X153258068Y-94540158D01*
X153370010Y-94810411D01*
X153532525Y-95053632D01*
X153739368Y-95260475D01*
X153913760Y-95377000D01*
X153739368Y-95493525D01*
X153532525Y-95700368D01*
X153370010Y-95943589D01*
X153258068Y-96213842D01*
X153201000Y-96500740D01*
X153201000Y-96793260D01*
X153258068Y-97080158D01*
X153370010Y-97350411D01*
X153532525Y-97593632D01*
X153739368Y-97800475D01*
X153913760Y-97917000D01*
X153739368Y-98033525D01*
X153532525Y-98240368D01*
X153370010Y-98483589D01*
X153258068Y-98753842D01*
X153201000Y-99040740D01*
X153201000Y-99333260D01*
X153258068Y-99620158D01*
X153370010Y-99890411D01*
X153532525Y-100133632D01*
X153739368Y-100340475D01*
X153913760Y-100457000D01*
X153739368Y-100573525D01*
X153532525Y-100780368D01*
X153370010Y-101023589D01*
X153258068Y-101293842D01*
X153201000Y-101580740D01*
X153201000Y-101873260D01*
X153258068Y-102160158D01*
X153370010Y-102430411D01*
X153532525Y-102673632D01*
X153739368Y-102880475D01*
X153913760Y-102997000D01*
X153739368Y-103113525D01*
X153532525Y-103320368D01*
X153370010Y-103563589D01*
X153258068Y-103833842D01*
X153201000Y-104120740D01*
X153201000Y-104413260D01*
X153258068Y-104700158D01*
X153370010Y-104970411D01*
X153532525Y-105213632D01*
X153739368Y-105420475D01*
X153913760Y-105537000D01*
X153739368Y-105653525D01*
X153532525Y-105860368D01*
X153370010Y-106103589D01*
X153258068Y-106373842D01*
X153201000Y-106660740D01*
X153201000Y-106953260D01*
X153258068Y-107240158D01*
X153370010Y-107510411D01*
X153532525Y-107753632D01*
X153678893Y-107900000D01*
X140453107Y-107900000D01*
X140599475Y-107753632D01*
X140761990Y-107510411D01*
X140873932Y-107240158D01*
X140931000Y-106953260D01*
X140931000Y-106660740D01*
X140873932Y-106373842D01*
X140761990Y-106103589D01*
X140599475Y-105860368D01*
X140392632Y-105653525D01*
X140218240Y-105537000D01*
X140392632Y-105420475D01*
X140599475Y-105213632D01*
X140761990Y-104970411D01*
X140873932Y-104700158D01*
X140931000Y-104413260D01*
X140931000Y-104120740D01*
X140873932Y-103833842D01*
X140761990Y-103563589D01*
X140599475Y-103320368D01*
X140392632Y-103113525D01*
X140218240Y-102997000D01*
X140392632Y-102880475D01*
X140599475Y-102673632D01*
X140761990Y-102430411D01*
X140873932Y-102160158D01*
X140931000Y-101873260D01*
X140931000Y-101580740D01*
X140873932Y-101293842D01*
X140761990Y-101023589D01*
X140599475Y-100780368D01*
X140392632Y-100573525D01*
X140218240Y-100457000D01*
X140392632Y-100340475D01*
X140599475Y-100133632D01*
X140761990Y-99890411D01*
X140873932Y-99620158D01*
X140931000Y-99333260D01*
X140931000Y-99040740D01*
X140873932Y-98753842D01*
X140761990Y-98483589D01*
X140599475Y-98240368D01*
X140392632Y-98033525D01*
X140218240Y-97917000D01*
X140392632Y-97800475D01*
X140599475Y-97593632D01*
X140761990Y-97350411D01*
X140873932Y-97080158D01*
X140931000Y-96793260D01*
X140931000Y-96500740D01*
X140873932Y-96213842D01*
X140761990Y-95943589D01*
X140599475Y-95700368D01*
X140392632Y-95493525D01*
X140218240Y-95377000D01*
X140392632Y-95260475D01*
X140599475Y-95053632D01*
X140761990Y-94810411D01*
X140873932Y-94540158D01*
X140931000Y-94253260D01*
X140931000Y-93960740D01*
X140918816Y-93899486D01*
X143725149Y-91093153D01*
X143846229Y-91069068D01*
X144016389Y-90998586D01*
X144169528Y-90896262D01*
X144299762Y-90766028D01*
X144402086Y-90612889D01*
X144472568Y-90442729D01*
X144508500Y-90262089D01*
X144508500Y-90077911D01*
X144472568Y-89897271D01*
X144402086Y-89727111D01*
X144299762Y-89573972D01*
X144169528Y-89443738D01*
X144016389Y-89341414D01*
X143846229Y-89270932D01*
X143665589Y-89235000D01*
X143481411Y-89235000D01*
X143300771Y-89270932D01*
X143130611Y-89341414D01*
X142977472Y-89443738D01*
X142875000Y-89546210D01*
X142772528Y-89443738D01*
X142619389Y-89341414D01*
X142449229Y-89270932D01*
X142268589Y-89235000D01*
X142084411Y-89235000D01*
X141903771Y-89270932D01*
X141733611Y-89341414D01*
X141580472Y-89443738D01*
X141450238Y-89573972D01*
X141347914Y-89727111D01*
X141277432Y-89897271D01*
X141253347Y-90018351D01*
X140620245Y-90651453D01*
X140599475Y-90620368D01*
X140392632Y-90413525D01*
X140218240Y-90297000D01*
X140392632Y-90180475D01*
X140599475Y-89973632D01*
X140761990Y-89730411D01*
X140873932Y-89460158D01*
X140931000Y-89173260D01*
X140931000Y-88880740D01*
X140873932Y-88593842D01*
X140761990Y-88323589D01*
X140599475Y-88080368D01*
X140392632Y-87873525D01*
X140218240Y-87757000D01*
X140392632Y-87640475D01*
X140599475Y-87433632D01*
X140761990Y-87190411D01*
X140873932Y-86920158D01*
X140931000Y-86633260D01*
X140931000Y-86340740D01*
X140873932Y-86053842D01*
X140761990Y-85783589D01*
X140599475Y-85540368D01*
X140392632Y-85333525D01*
X140218240Y-85217000D01*
X140392632Y-85100475D01*
X140599475Y-84893632D01*
X140761990Y-84650411D01*
X140873932Y-84380158D01*
X140931000Y-84093260D01*
X140931000Y-83800740D01*
X140873932Y-83513842D01*
X140761990Y-83243589D01*
X140599475Y-83000368D01*
X140392632Y-82793525D01*
X140218240Y-82677000D01*
X140392632Y-82560475D01*
X140599475Y-82353632D01*
X140761990Y-82110411D01*
X140873932Y-81840158D01*
X140931000Y-81553260D01*
X140931000Y-81260740D01*
X140873932Y-80973842D01*
X140761990Y-80703589D01*
X140599475Y-80460368D01*
X140467620Y-80328513D01*
X140540180Y-80306502D01*
X140650494Y-80247537D01*
X140747185Y-80168185D01*
X140826537Y-80071494D01*
X140885502Y-79961180D01*
X140921812Y-79841482D01*
X140934072Y-79717000D01*
X140931000Y-79152750D01*
X140772250Y-78994000D01*
X139573000Y-78994000D01*
X139573000Y-79014000D01*
X139319000Y-79014000D01*
X139319000Y-78994000D01*
X138119750Y-78994000D01*
X137961000Y-79152750D01*
X137957928Y-79717000D01*
X137970188Y-79841482D01*
X138006498Y-79961180D01*
X138065463Y-80071494D01*
X138144815Y-80168185D01*
X138241506Y-80247537D01*
X138351820Y-80306502D01*
X138424380Y-80328513D01*
X138292525Y-80460368D01*
X138130010Y-80703589D01*
X138018068Y-80973842D01*
X137961000Y-81260740D01*
X137961000Y-81553260D01*
X138018068Y-81840158D01*
X138130010Y-82110411D01*
X138292525Y-82353632D01*
X138499368Y-82560475D01*
X138673760Y-82677000D01*
X138499368Y-82793525D01*
X138292525Y-83000368D01*
X138130010Y-83243589D01*
X138018068Y-83513842D01*
X137961000Y-83800740D01*
X137961000Y-84093260D01*
X138018068Y-84380158D01*
X138130010Y-84650411D01*
X138292525Y-84893632D01*
X138499368Y-85100475D01*
X138673760Y-85217000D01*
X138499368Y-85333525D01*
X138292525Y-85540368D01*
X138130010Y-85783589D01*
X138018068Y-86053842D01*
X137961000Y-86340740D01*
X137961000Y-86633260D01*
X138018068Y-86920158D01*
X138130010Y-87190411D01*
X138292525Y-87433632D01*
X138499368Y-87640475D01*
X138673760Y-87757000D01*
X138499368Y-87873525D01*
X138292525Y-88080368D01*
X138130010Y-88323589D01*
X138018068Y-88593842D01*
X137961000Y-88880740D01*
X137961000Y-89173260D01*
X138018068Y-89460158D01*
X138130010Y-89730411D01*
X138292525Y-89973632D01*
X138499368Y-90180475D01*
X138673760Y-90297000D01*
X138499368Y-90413525D01*
X138292525Y-90620368D01*
X138130010Y-90863589D01*
X138018068Y-91133842D01*
X137961000Y-91420740D01*
X137961000Y-91713260D01*
X138018068Y-92000158D01*
X138130010Y-92270411D01*
X138292525Y-92513632D01*
X138499368Y-92720475D01*
X138673760Y-92837000D01*
X138499368Y-92953525D01*
X138292525Y-93160368D01*
X138130010Y-93403589D01*
X138018068Y-93673842D01*
X137961000Y-93960740D01*
X137961000Y-94253260D01*
X138018068Y-94540158D01*
X138130010Y-94810411D01*
X138292525Y-95053632D01*
X138499368Y-95260475D01*
X138673760Y-95377000D01*
X138499368Y-95493525D01*
X138292525Y-95700368D01*
X138130010Y-95943589D01*
X138018068Y-96213842D01*
X137961000Y-96500740D01*
X137961000Y-96793260D01*
X138018068Y-97080158D01*
X138130010Y-97350411D01*
X138292525Y-97593632D01*
X138499368Y-97800475D01*
X138673760Y-97917000D01*
X138499368Y-98033525D01*
X138292525Y-98240368D01*
X138130010Y-98483589D01*
X138018068Y-98753842D01*
X137961000Y-99040740D01*
X137961000Y-99333260D01*
X138018068Y-99620158D01*
X138130010Y-99890411D01*
X138292525Y-100133632D01*
X138499368Y-100340475D01*
X138673760Y-100457000D01*
X138499368Y-100573525D01*
X138292525Y-100780368D01*
X138130010Y-101023589D01*
X138018068Y-101293842D01*
X137961000Y-101580740D01*
X137961000Y-101873260D01*
X138018068Y-102160158D01*
X138130010Y-102430411D01*
X138292525Y-102673632D01*
X138499368Y-102880475D01*
X138673760Y-102997000D01*
X138499368Y-103113525D01*
X138292525Y-103320368D01*
X138130010Y-103563589D01*
X138018068Y-103833842D01*
X137961000Y-104120740D01*
X137961000Y-104413260D01*
X138018068Y-104700158D01*
X138130010Y-104970411D01*
X138292525Y-105213632D01*
X138499368Y-105420475D01*
X138673760Y-105537000D01*
X138499368Y-105653525D01*
X138292525Y-105860368D01*
X138130010Y-106103589D01*
X138018068Y-106373842D01*
X137961000Y-106660740D01*
X137961000Y-106953260D01*
X138018068Y-107240158D01*
X138130010Y-107510411D01*
X138292525Y-107753632D01*
X138438893Y-107900000D01*
X136321000Y-107900000D01*
X136321000Y-78017000D01*
X137957928Y-78017000D01*
X137961000Y-78581250D01*
X138119750Y-78740000D01*
X139319000Y-78740000D01*
X139319000Y-77540750D01*
X139573000Y-77540750D01*
X139573000Y-78740000D01*
X140772250Y-78740000D01*
X140931000Y-78581250D01*
X140934072Y-78017000D01*
X140921812Y-77892518D01*
X140885502Y-77772820D01*
X140826537Y-77662506D01*
X140747185Y-77565815D01*
X140650494Y-77486463D01*
X140540180Y-77427498D01*
X140420482Y-77391188D01*
X140296000Y-77378928D01*
X139731750Y-77382000D01*
X139573000Y-77540750D01*
X139319000Y-77540750D01*
X139160250Y-77382000D01*
X138596000Y-77378928D01*
X138471518Y-77391188D01*
X138351820Y-77427498D01*
X138241506Y-77486463D01*
X138144815Y-77565815D01*
X138065463Y-77662506D01*
X138006498Y-77772820D01*
X137970188Y-77892518D01*
X137957928Y-78017000D01*
X136321000Y-78017000D01*
X136321000Y-63169000D01*
X157811001Y-63169000D01*
X157811000Y-107900000D01*
%TA.AperFunction,Conductor*%
D15*
G36*
X157811000Y-107900000D02*
G01*
X155693107Y-107900000D01*
X155839475Y-107753632D01*
X156001990Y-107510411D01*
X156113932Y-107240158D01*
X156171000Y-106953260D01*
X156171000Y-106660740D01*
X156113932Y-106373842D01*
X156001990Y-106103589D01*
X155839475Y-105860368D01*
X155632632Y-105653525D01*
X155458240Y-105537000D01*
X155632632Y-105420475D01*
X155839475Y-105213632D01*
X156001990Y-104970411D01*
X156113932Y-104700158D01*
X156171000Y-104413260D01*
X156171000Y-104120740D01*
X156113932Y-103833842D01*
X156001990Y-103563589D01*
X155839475Y-103320368D01*
X155632632Y-103113525D01*
X155458240Y-102997000D01*
X155632632Y-102880475D01*
X155839475Y-102673632D01*
X156001990Y-102430411D01*
X156113932Y-102160158D01*
X156171000Y-101873260D01*
X156171000Y-101580740D01*
X156113932Y-101293842D01*
X156001990Y-101023589D01*
X155839475Y-100780368D01*
X155632632Y-100573525D01*
X155458240Y-100457000D01*
X155632632Y-100340475D01*
X155839475Y-100133632D01*
X156001990Y-99890411D01*
X156113932Y-99620158D01*
X156171000Y-99333260D01*
X156171000Y-99040740D01*
X156113932Y-98753842D01*
X156001990Y-98483589D01*
X155839475Y-98240368D01*
X155632632Y-98033525D01*
X155458240Y-97917000D01*
X155632632Y-97800475D01*
X155839475Y-97593632D01*
X156001990Y-97350411D01*
X156113932Y-97080158D01*
X156171000Y-96793260D01*
X156171000Y-96500740D01*
X156113932Y-96213842D01*
X156001990Y-95943589D01*
X155839475Y-95700368D01*
X155632632Y-95493525D01*
X155458240Y-95377000D01*
X155632632Y-95260475D01*
X155839475Y-95053632D01*
X156001990Y-94810411D01*
X156113932Y-94540158D01*
X156171000Y-94253260D01*
X156171000Y-93960740D01*
X156113932Y-93673842D01*
X156001990Y-93403589D01*
X155839475Y-93160368D01*
X155632632Y-92953525D01*
X155458240Y-92837000D01*
X155632632Y-92720475D01*
X155839475Y-92513632D01*
X156001990Y-92270411D01*
X156113932Y-92000158D01*
X156171000Y-91713260D01*
X156171000Y-91420740D01*
X156113932Y-91133842D01*
X156001990Y-90863589D01*
X155839475Y-90620368D01*
X155632632Y-90413525D01*
X155458240Y-90297000D01*
X155632632Y-90180475D01*
X155839475Y-89973632D01*
X156001990Y-89730411D01*
X156113932Y-89460158D01*
X156171000Y-89173260D01*
X156171000Y-88880740D01*
X156113932Y-88593842D01*
X156001990Y-88323589D01*
X155839475Y-88080368D01*
X155632632Y-87873525D01*
X155458240Y-87757000D01*
X155632632Y-87640475D01*
X155839475Y-87433632D01*
X156001990Y-87190411D01*
X156113932Y-86920158D01*
X156171000Y-86633260D01*
X156171000Y-86340740D01*
X156113932Y-86053842D01*
X156001990Y-85783589D01*
X155839475Y-85540368D01*
X155632632Y-85333525D01*
X155458240Y-85217000D01*
X155632632Y-85100475D01*
X155839475Y-84893632D01*
X156001990Y-84650411D01*
X156113932Y-84380158D01*
X156171000Y-84093260D01*
X156171000Y-83800740D01*
X156113932Y-83513842D01*
X156001990Y-83243589D01*
X155839475Y-83000368D01*
X155632632Y-82793525D01*
X155458240Y-82677000D01*
X155632632Y-82560475D01*
X155839475Y-82353632D01*
X156001990Y-82110411D01*
X156113932Y-81840158D01*
X156171000Y-81553260D01*
X156171000Y-81260740D01*
X156113932Y-80973842D01*
X156001990Y-80703589D01*
X155839475Y-80460368D01*
X155707620Y-80328513D01*
X155780180Y-80306502D01*
X155890494Y-80247537D01*
X155987185Y-80168185D01*
X156066537Y-80071494D01*
X156125502Y-79961180D01*
X156161812Y-79841482D01*
X156174072Y-79717000D01*
X156174072Y-78017000D01*
X156161812Y-77892518D01*
X156125502Y-77772820D01*
X156066537Y-77662506D01*
X155987185Y-77565815D01*
X155890494Y-77486463D01*
X155780180Y-77427498D01*
X155660482Y-77391188D01*
X155536000Y-77378928D01*
X153836000Y-77378928D01*
X153711518Y-77391188D01*
X153591820Y-77427498D01*
X153481506Y-77486463D01*
X153384815Y-77565815D01*
X153305463Y-77662506D01*
X153246498Y-77772820D01*
X153210188Y-77892518D01*
X153197928Y-78017000D01*
X153197928Y-79717000D01*
X153210188Y-79841482D01*
X153246498Y-79961180D01*
X153305463Y-80071494D01*
X153384815Y-80168185D01*
X153481506Y-80247537D01*
X153591820Y-80306502D01*
X153664380Y-80328513D01*
X153532525Y-80460368D01*
X153370010Y-80703589D01*
X153258068Y-80973842D01*
X153201000Y-81260740D01*
X153201000Y-81553260D01*
X153258068Y-81840158D01*
X153370010Y-82110411D01*
X153532525Y-82353632D01*
X153739368Y-82560475D01*
X153913760Y-82677000D01*
X153739368Y-82793525D01*
X153532525Y-83000368D01*
X153370010Y-83243589D01*
X153258068Y-83513842D01*
X153201000Y-83800740D01*
X153201000Y-84093260D01*
X153258068Y-84380158D01*
X153370010Y-84650411D01*
X153532525Y-84893632D01*
X153739368Y-85100475D01*
X153913760Y-85217000D01*
X153739368Y-85333525D01*
X153532525Y-85540368D01*
X153370010Y-85783589D01*
X153258068Y-86053842D01*
X153201000Y-86340740D01*
X153201000Y-86633260D01*
X153258068Y-86920158D01*
X153370010Y-87190411D01*
X153532525Y-87433632D01*
X153739368Y-87640475D01*
X153913760Y-87757000D01*
X153739368Y-87873525D01*
X153532525Y-88080368D01*
X153370010Y-88323589D01*
X153258068Y-88593842D01*
X153201000Y-88880740D01*
X153201000Y-89173260D01*
X153258068Y-89460158D01*
X153370010Y-89730411D01*
X153532525Y-89973632D01*
X153739368Y-90180475D01*
X153913760Y-90297000D01*
X153739368Y-90413525D01*
X153532525Y-90620368D01*
X153370010Y-90863589D01*
X153258068Y-91133842D01*
X153201000Y-91420740D01*
X153201000Y-91713260D01*
X153258068Y-92000158D01*
X153370010Y-92270411D01*
X153532525Y-92513632D01*
X153739368Y-92720475D01*
X153913760Y-92837000D01*
X153739368Y-92953525D01*
X153532525Y-93160368D01*
X153370010Y-93403589D01*
X153258068Y-93673842D01*
X153201000Y-93960740D01*
X153201000Y-94253260D01*
X153258068Y-94540158D01*
X153370010Y-94810411D01*
X153532525Y-95053632D01*
X153739368Y-95260475D01*
X153913760Y-95377000D01*
X153739368Y-95493525D01*
X153532525Y-95700368D01*
X153370010Y-95943589D01*
X153258068Y-96213842D01*
X153201000Y-96500740D01*
X153201000Y-96793260D01*
X153258068Y-97080158D01*
X153370010Y-97350411D01*
X153532525Y-97593632D01*
X153739368Y-97800475D01*
X153913760Y-97917000D01*
X153739368Y-98033525D01*
X153532525Y-98240368D01*
X153370010Y-98483589D01*
X153258068Y-98753842D01*
X153201000Y-99040740D01*
X153201000Y-99333260D01*
X153258068Y-99620158D01*
X153370010Y-99890411D01*
X153532525Y-100133632D01*
X153739368Y-100340475D01*
X153913760Y-100457000D01*
X153739368Y-100573525D01*
X153532525Y-100780368D01*
X153370010Y-101023589D01*
X153258068Y-101293842D01*
X153201000Y-101580740D01*
X153201000Y-101873260D01*
X153258068Y-102160158D01*
X153370010Y-102430411D01*
X153532525Y-102673632D01*
X153739368Y-102880475D01*
X153913760Y-102997000D01*
X153739368Y-103113525D01*
X153532525Y-103320368D01*
X153370010Y-103563589D01*
X153258068Y-103833842D01*
X153201000Y-104120740D01*
X153201000Y-104413260D01*
X153258068Y-104700158D01*
X153370010Y-104970411D01*
X153532525Y-105213632D01*
X153739368Y-105420475D01*
X153913760Y-105537000D01*
X153739368Y-105653525D01*
X153532525Y-105860368D01*
X153370010Y-106103589D01*
X153258068Y-106373842D01*
X153201000Y-106660740D01*
X153201000Y-106953260D01*
X153258068Y-107240158D01*
X153370010Y-107510411D01*
X153532525Y-107753632D01*
X153678893Y-107900000D01*
X140453107Y-107900000D01*
X140599475Y-107753632D01*
X140761990Y-107510411D01*
X140873932Y-107240158D01*
X140931000Y-106953260D01*
X140931000Y-106660740D01*
X140873932Y-106373842D01*
X140761990Y-106103589D01*
X140599475Y-105860368D01*
X140392632Y-105653525D01*
X140218240Y-105537000D01*
X140392632Y-105420475D01*
X140599475Y-105213632D01*
X140761990Y-104970411D01*
X140873932Y-104700158D01*
X140931000Y-104413260D01*
X140931000Y-104120740D01*
X140873932Y-103833842D01*
X140761990Y-103563589D01*
X140599475Y-103320368D01*
X140392632Y-103113525D01*
X140218240Y-102997000D01*
X140392632Y-102880475D01*
X140599475Y-102673632D01*
X140761990Y-102430411D01*
X140873932Y-102160158D01*
X140931000Y-101873260D01*
X140931000Y-101580740D01*
X140873932Y-101293842D01*
X140761990Y-101023589D01*
X140599475Y-100780368D01*
X140392632Y-100573525D01*
X140218240Y-100457000D01*
X140392632Y-100340475D01*
X140599475Y-100133632D01*
X140761990Y-99890411D01*
X140873932Y-99620158D01*
X140931000Y-99333260D01*
X140931000Y-99040740D01*
X140873932Y-98753842D01*
X140761990Y-98483589D01*
X140599475Y-98240368D01*
X140392632Y-98033525D01*
X140218240Y-97917000D01*
X140392632Y-97800475D01*
X140599475Y-97593632D01*
X140761990Y-97350411D01*
X140873932Y-97080158D01*
X140931000Y-96793260D01*
X140931000Y-96500740D01*
X140873932Y-96213842D01*
X140761990Y-95943589D01*
X140599475Y-95700368D01*
X140392632Y-95493525D01*
X140218240Y-95377000D01*
X140392632Y-95260475D01*
X140599475Y-95053632D01*
X140761990Y-94810411D01*
X140873932Y-94540158D01*
X140931000Y-94253260D01*
X140931000Y-93960740D01*
X140918816Y-93899486D01*
X143725149Y-91093153D01*
X143846229Y-91069068D01*
X144016389Y-90998586D01*
X144169528Y-90896262D01*
X144299762Y-90766028D01*
X144402086Y-90612889D01*
X144472568Y-90442729D01*
X144508500Y-90262089D01*
X144508500Y-90077911D01*
X144472568Y-89897271D01*
X144402086Y-89727111D01*
X144299762Y-89573972D01*
X144169528Y-89443738D01*
X144016389Y-89341414D01*
X143846229Y-89270932D01*
X143665589Y-89235000D01*
X143481411Y-89235000D01*
X143300771Y-89270932D01*
X143130611Y-89341414D01*
X142977472Y-89443738D01*
X142875000Y-89546210D01*
X142772528Y-89443738D01*
X142619389Y-89341414D01*
X142449229Y-89270932D01*
X142268589Y-89235000D01*
X142084411Y-89235000D01*
X141903771Y-89270932D01*
X141733611Y-89341414D01*
X141580472Y-89443738D01*
X141450238Y-89573972D01*
X141347914Y-89727111D01*
X141277432Y-89897271D01*
X141253347Y-90018351D01*
X140620245Y-90651453D01*
X140599475Y-90620368D01*
X140392632Y-90413525D01*
X140218240Y-90297000D01*
X140392632Y-90180475D01*
X140599475Y-89973632D01*
X140761990Y-89730411D01*
X140873932Y-89460158D01*
X140931000Y-89173260D01*
X140931000Y-88880740D01*
X140873932Y-88593842D01*
X140761990Y-88323589D01*
X140599475Y-88080368D01*
X140392632Y-87873525D01*
X140218240Y-87757000D01*
X140392632Y-87640475D01*
X140599475Y-87433632D01*
X140761990Y-87190411D01*
X140873932Y-86920158D01*
X140931000Y-86633260D01*
X140931000Y-86340740D01*
X140873932Y-86053842D01*
X140761990Y-85783589D01*
X140599475Y-85540368D01*
X140392632Y-85333525D01*
X140218240Y-85217000D01*
X140392632Y-85100475D01*
X140599475Y-84893632D01*
X140761990Y-84650411D01*
X140873932Y-84380158D01*
X140931000Y-84093260D01*
X140931000Y-83800740D01*
X140873932Y-83513842D01*
X140761990Y-83243589D01*
X140599475Y-83000368D01*
X140392632Y-82793525D01*
X140218240Y-82677000D01*
X140392632Y-82560475D01*
X140599475Y-82353632D01*
X140761990Y-82110411D01*
X140873932Y-81840158D01*
X140931000Y-81553260D01*
X140931000Y-81260740D01*
X140873932Y-80973842D01*
X140761990Y-80703589D01*
X140599475Y-80460368D01*
X140467620Y-80328513D01*
X140540180Y-80306502D01*
X140650494Y-80247537D01*
X140747185Y-80168185D01*
X140826537Y-80071494D01*
X140885502Y-79961180D01*
X140921812Y-79841482D01*
X140934072Y-79717000D01*
X140931000Y-79152750D01*
X140772250Y-78994000D01*
X139573000Y-78994000D01*
X139573000Y-79014000D01*
X139319000Y-79014000D01*
X139319000Y-78994000D01*
X138119750Y-78994000D01*
X137961000Y-79152750D01*
X137957928Y-79717000D01*
X137970188Y-79841482D01*
X138006498Y-79961180D01*
X138065463Y-80071494D01*
X138144815Y-80168185D01*
X138241506Y-80247537D01*
X138351820Y-80306502D01*
X138424380Y-80328513D01*
X138292525Y-80460368D01*
X138130010Y-80703589D01*
X138018068Y-80973842D01*
X137961000Y-81260740D01*
X137961000Y-81553260D01*
X138018068Y-81840158D01*
X138130010Y-82110411D01*
X138292525Y-82353632D01*
X138499368Y-82560475D01*
X138673760Y-82677000D01*
X138499368Y-82793525D01*
X138292525Y-83000368D01*
X138130010Y-83243589D01*
X138018068Y-83513842D01*
X137961000Y-83800740D01*
X137961000Y-84093260D01*
X138018068Y-84380158D01*
X138130010Y-84650411D01*
X138292525Y-84893632D01*
X138499368Y-85100475D01*
X138673760Y-85217000D01*
X138499368Y-85333525D01*
X138292525Y-85540368D01*
X138130010Y-85783589D01*
X138018068Y-86053842D01*
X137961000Y-86340740D01*
X137961000Y-86633260D01*
X138018068Y-86920158D01*
X138130010Y-87190411D01*
X138292525Y-87433632D01*
X138499368Y-87640475D01*
X138673760Y-87757000D01*
X138499368Y-87873525D01*
X138292525Y-88080368D01*
X138130010Y-88323589D01*
X138018068Y-88593842D01*
X137961000Y-88880740D01*
X137961000Y-89173260D01*
X138018068Y-89460158D01*
X138130010Y-89730411D01*
X138292525Y-89973632D01*
X138499368Y-90180475D01*
X138673760Y-90297000D01*
X138499368Y-90413525D01*
X138292525Y-90620368D01*
X138130010Y-90863589D01*
X138018068Y-91133842D01*
X137961000Y-91420740D01*
X137961000Y-91713260D01*
X138018068Y-92000158D01*
X138130010Y-92270411D01*
X138292525Y-92513632D01*
X138499368Y-92720475D01*
X138673760Y-92837000D01*
X138499368Y-92953525D01*
X138292525Y-93160368D01*
X138130010Y-93403589D01*
X138018068Y-93673842D01*
X137961000Y-93960740D01*
X137961000Y-94253260D01*
X138018068Y-94540158D01*
X138130010Y-94810411D01*
X138292525Y-95053632D01*
X138499368Y-95260475D01*
X138673760Y-95377000D01*
X138499368Y-95493525D01*
X138292525Y-95700368D01*
X138130010Y-95943589D01*
X138018068Y-96213842D01*
X137961000Y-96500740D01*
X137961000Y-96793260D01*
X138018068Y-97080158D01*
X138130010Y-97350411D01*
X138292525Y-97593632D01*
X138499368Y-97800475D01*
X138673760Y-97917000D01*
X138499368Y-98033525D01*
X138292525Y-98240368D01*
X138130010Y-98483589D01*
X138018068Y-98753842D01*
X137961000Y-99040740D01*
X137961000Y-99333260D01*
X138018068Y-99620158D01*
X138130010Y-99890411D01*
X138292525Y-100133632D01*
X138499368Y-100340475D01*
X138673760Y-100457000D01*
X138499368Y-100573525D01*
X138292525Y-100780368D01*
X138130010Y-101023589D01*
X138018068Y-101293842D01*
X137961000Y-101580740D01*
X137961000Y-101873260D01*
X138018068Y-102160158D01*
X138130010Y-102430411D01*
X138292525Y-102673632D01*
X138499368Y-102880475D01*
X138673760Y-102997000D01*
X138499368Y-103113525D01*
X138292525Y-103320368D01*
X138130010Y-103563589D01*
X138018068Y-103833842D01*
X137961000Y-104120740D01*
X137961000Y-104413260D01*
X138018068Y-104700158D01*
X138130010Y-104970411D01*
X138292525Y-105213632D01*
X138499368Y-105420475D01*
X138673760Y-105537000D01*
X138499368Y-105653525D01*
X138292525Y-105860368D01*
X138130010Y-106103589D01*
X138018068Y-106373842D01*
X137961000Y-106660740D01*
X137961000Y-106953260D01*
X138018068Y-107240158D01*
X138130010Y-107510411D01*
X138292525Y-107753632D01*
X138438893Y-107900000D01*
X136321000Y-107900000D01*
X136321000Y-78017000D01*
X137957928Y-78017000D01*
X137961000Y-78581250D01*
X138119750Y-78740000D01*
X139319000Y-78740000D01*
X139319000Y-77540750D01*
X139573000Y-77540750D01*
X139573000Y-78740000D01*
X140772250Y-78740000D01*
X140931000Y-78581250D01*
X140934072Y-78017000D01*
X140921812Y-77892518D01*
X140885502Y-77772820D01*
X140826537Y-77662506D01*
X140747185Y-77565815D01*
X140650494Y-77486463D01*
X140540180Y-77427498D01*
X140420482Y-77391188D01*
X140296000Y-77378928D01*
X139731750Y-77382000D01*
X139573000Y-77540750D01*
X139319000Y-77540750D01*
X139160250Y-77382000D01*
X138596000Y-77378928D01*
X138471518Y-77391188D01*
X138351820Y-77427498D01*
X138241506Y-77486463D01*
X138144815Y-77565815D01*
X138065463Y-77662506D01*
X138006498Y-77772820D01*
X137970188Y-77892518D01*
X137957928Y-78017000D01*
X136321000Y-78017000D01*
X136321000Y-63169000D01*
X157811001Y-63169000D01*
X157811000Y-107900000D01*
G37*
%TD.AperFunction*%
%TD*%
M02*
