%TF.GenerationSoftware,KiCad,Pcbnew,5.1.10-88a1d61d58~90~ubuntu20.04.1*%
%TF.CreationDate,2021-07-31T22:23:30+02:00*%
%TF.ProjectId,dwm_nano_shield,64776d5f-6e61-46e6-9f5f-736869656c64,rev?*%
%TF.SameCoordinates,Original*%
%TF.FileFunction,Copper,L1,Top*%
%TF.FilePolarity,Positive*%
%FSLAX46Y46*%
G04 Gerber Fmt 4.6, Leading zero omitted, Abs format (unit mm)*
G04 Created by KiCad (PCBNEW 5.1.10-88a1d61d58~90~ubuntu20.04.1) date 2021-07-31 22:23:30*
%MOMM*%
%LPD*%
G01*
G04 APERTURE LIST*
%TA.AperFunction,ComponentPad*%
%ADD10O,1.700000X1.700000*%
%TD*%
%TA.AperFunction,ComponentPad*%
%ADD11R,1.700000X1.700000*%
%TD*%
%TA.AperFunction,SMDPad,CuDef*%
%ADD12R,2.450000X1.000000*%
%TD*%
%TA.AperFunction,SMDPad,CuDef*%
%ADD13R,1.000000X2.450000*%
%TD*%
%TA.AperFunction,ViaPad*%
%ADD14C,0.600000*%
%TD*%
%TA.AperFunction,Conductor*%
%ADD15C,0.250000*%
%TD*%
%TA.AperFunction,Conductor*%
%ADD16C,0.500000*%
%TD*%
%TA.AperFunction,Conductor*%
%ADD17C,0.254000*%
%TD*%
%TA.AperFunction,Conductor*%
%ADD18C,0.100000*%
%TD*%
G04 APERTURE END LIST*
%TO.P,R4,2*%
%TO.N,Net-(D3-Pad2)*%
%TA.AperFunction,SMDPad,CuDef*%
G36*
G01*
X147974000Y-106405000D02*
X147974000Y-106955000D01*
G75*
G02*
X147774000Y-107155000I-200000J0D01*
G01*
X147374000Y-107155000D01*
G75*
G02*
X147174000Y-106955000I0J200000D01*
G01*
X147174000Y-106405000D01*
G75*
G02*
X147374000Y-106205000I200000J0D01*
G01*
X147774000Y-106205000D01*
G75*
G02*
X147974000Y-106405000I0J-200000D01*
G01*
G37*
%TD.AperFunction*%
%TO.P,R4,1*%
%TO.N,+3V3*%
%TA.AperFunction,SMDPad,CuDef*%
G36*
G01*
X149624000Y-106405000D02*
X149624000Y-106955000D01*
G75*
G02*
X149424000Y-107155000I-200000J0D01*
G01*
X149024000Y-107155000D01*
G75*
G02*
X148824000Y-106955000I0J200000D01*
G01*
X148824000Y-106405000D01*
G75*
G02*
X149024000Y-106205000I200000J0D01*
G01*
X149424000Y-106205000D01*
G75*
G02*
X149624000Y-106405000I0J-200000D01*
G01*
G37*
%TD.AperFunction*%
%TD*%
%TO.P,D3,2*%
%TO.N,Net-(D3-Pad2)*%
%TA.AperFunction,SMDPad,CuDef*%
G36*
G01*
X145765000Y-106936250D02*
X145765000Y-106423750D01*
G75*
G02*
X145983750Y-106205000I218750J0D01*
G01*
X146421250Y-106205000D01*
G75*
G02*
X146640000Y-106423750I0J-218750D01*
G01*
X146640000Y-106936250D01*
G75*
G02*
X146421250Y-107155000I-218750J0D01*
G01*
X145983750Y-107155000D01*
G75*
G02*
X145765000Y-106936250I0J218750D01*
G01*
G37*
%TD.AperFunction*%
%TO.P,D3,1*%
%TO.N,GND*%
%TA.AperFunction,SMDPad,CuDef*%
G36*
G01*
X144190000Y-106936250D02*
X144190000Y-106423750D01*
G75*
G02*
X144408750Y-106205000I218750J0D01*
G01*
X144846250Y-106205000D01*
G75*
G02*
X145065000Y-106423750I0J-218750D01*
G01*
X145065000Y-106936250D01*
G75*
G02*
X144846250Y-107155000I-218750J0D01*
G01*
X144408750Y-107155000D01*
G75*
G02*
X144190000Y-106936250I0J218750D01*
G01*
G37*
%TD.AperFunction*%
%TD*%
D10*
%TO.P,P2,12*%
%TO.N,/13*%
X154686000Y-106807000D03*
%TO.P,P2,11*%
%TO.N,+3V3*%
X154686000Y-104267000D03*
%TO.P,P2,10*%
%TO.N,/AREF*%
X154686000Y-101727000D03*
%TO.P,P2,9*%
%TO.N,/A0*%
X154686000Y-99187000D03*
%TO.P,P2,8*%
%TO.N,/A1*%
X154686000Y-96647000D03*
%TO.P,P2,7*%
%TO.N,/A2*%
X154686000Y-94107000D03*
%TO.P,P2,6*%
%TO.N,/A3*%
X154686000Y-91567000D03*
%TO.P,P2,5*%
%TO.N,/A4(SCK)*%
X154686000Y-89027000D03*
%TO.P,P2,4*%
%TO.N,/A5(MISO)*%
X154686000Y-86487000D03*
%TO.P,P2,3*%
%TO.N,/A6(MOSI)*%
X154686000Y-83947000D03*
%TO.P,P2,2*%
%TO.N,/A7(SS)*%
X154686000Y-81407000D03*
D11*
%TO.P,P2,1*%
%TO.N,Net-(P2-Pad1)*%
X154686000Y-78867000D03*
%TD*%
D10*
%TO.P,P1,12*%
%TO.N,/D12*%
X139446000Y-106807000D03*
%TO.P,P1,11*%
%TO.N,/D11*%
X139446000Y-104267000D03*
%TO.P,P1,10*%
%TO.N,/D10*%
X139446000Y-101727000D03*
%TO.P,P1,9*%
%TO.N,/D9*%
X139446000Y-99187000D03*
%TO.P,P1,8*%
%TO.N,/D8*%
X139446000Y-96647000D03*
%TO.P,P1,7*%
%TO.N,/D7*%
X139446000Y-94107000D03*
%TO.P,P1,6*%
%TO.N,/D6*%
X139446000Y-91567000D03*
%TO.P,P1,5*%
%TO.N,/D5*%
X139446000Y-89027000D03*
%TO.P,P1,4*%
%TO.N,/D4*%
X139446000Y-86487000D03*
%TO.P,P1,3*%
%TO.N,/D3*%
X139446000Y-83947000D03*
%TO.P,P1,2*%
%TO.N,/D2*%
X139446000Y-81407000D03*
D11*
%TO.P,P1,1*%
%TO.N,GND*%
X139446000Y-78867000D03*
%TD*%
%TO.P,D2,2*%
%TO.N,Net-(D2-Pad2)*%
%TA.AperFunction,SMDPad,CuDef*%
G36*
G01*
X149671750Y-82073000D02*
X149159250Y-82073000D01*
G75*
G02*
X148940500Y-81854250I0J218750D01*
G01*
X148940500Y-81416750D01*
G75*
G02*
X149159250Y-81198000I218750J0D01*
G01*
X149671750Y-81198000D01*
G75*
G02*
X149890500Y-81416750I0J-218750D01*
G01*
X149890500Y-81854250D01*
G75*
G02*
X149671750Y-82073000I-218750J0D01*
G01*
G37*
%TD.AperFunction*%
%TO.P,D2,1*%
%TO.N,GND*%
%TA.AperFunction,SMDPad,CuDef*%
G36*
G01*
X149671750Y-83648000D02*
X149159250Y-83648000D01*
G75*
G02*
X148940500Y-83429250I0J218750D01*
G01*
X148940500Y-82991750D01*
G75*
G02*
X149159250Y-82773000I218750J0D01*
G01*
X149671750Y-82773000D01*
G75*
G02*
X149890500Y-82991750I0J-218750D01*
G01*
X149890500Y-83429250D01*
G75*
G02*
X149671750Y-83648000I-218750J0D01*
G01*
G37*
%TD.AperFunction*%
%TD*%
%TO.P,D1,2*%
%TO.N,Net-(D1-Pad2)*%
%TA.AperFunction,SMDPad,CuDef*%
G36*
G01*
X144972750Y-82098500D02*
X144460250Y-82098500D01*
G75*
G02*
X144241500Y-81879750I0J218750D01*
G01*
X144241500Y-81442250D01*
G75*
G02*
X144460250Y-81223500I218750J0D01*
G01*
X144972750Y-81223500D01*
G75*
G02*
X145191500Y-81442250I0J-218750D01*
G01*
X145191500Y-81879750D01*
G75*
G02*
X144972750Y-82098500I-218750J0D01*
G01*
G37*
%TD.AperFunction*%
%TO.P,D1,1*%
%TO.N,GND*%
%TA.AperFunction,SMDPad,CuDef*%
G36*
G01*
X144972750Y-83673500D02*
X144460250Y-83673500D01*
G75*
G02*
X144241500Y-83454750I0J218750D01*
G01*
X144241500Y-83017250D01*
G75*
G02*
X144460250Y-82798500I218750J0D01*
G01*
X144972750Y-82798500D01*
G75*
G02*
X145191500Y-83017250I0J-218750D01*
G01*
X145191500Y-83454750D01*
G75*
G02*
X144972750Y-83673500I-218750J0D01*
G01*
G37*
%TD.AperFunction*%
%TD*%
%TO.P,C1,2*%
%TO.N,GND*%
%TA.AperFunction,SMDPad,CuDef*%
G36*
G01*
X138680000Y-70655000D02*
X138180000Y-70655000D01*
G75*
G02*
X137955000Y-70430000I0J225000D01*
G01*
X137955000Y-69980000D01*
G75*
G02*
X138180000Y-69755000I225000J0D01*
G01*
X138680000Y-69755000D01*
G75*
G02*
X138905000Y-69980000I0J-225000D01*
G01*
X138905000Y-70430000D01*
G75*
G02*
X138680000Y-70655000I-225000J0D01*
G01*
G37*
%TD.AperFunction*%
%TO.P,C1,1*%
%TO.N,+3V3*%
%TA.AperFunction,SMDPad,CuDef*%
G36*
G01*
X138680000Y-72205000D02*
X138180000Y-72205000D01*
G75*
G02*
X137955000Y-71980000I0J225000D01*
G01*
X137955000Y-71530000D01*
G75*
G02*
X138180000Y-71305000I225000J0D01*
G01*
X138680000Y-71305000D01*
G75*
G02*
X138905000Y-71530000I0J-225000D01*
G01*
X138905000Y-71980000D01*
G75*
G02*
X138680000Y-72205000I-225000J0D01*
G01*
G37*
%TD.AperFunction*%
%TD*%
%TO.P,R3,2*%
%TO.N,Net-(D1-Pad2)*%
%TA.AperFunction,SMDPad,CuDef*%
G36*
G01*
X145117000Y-79925500D02*
X145117000Y-80475500D01*
G75*
G02*
X144917000Y-80675500I-200000J0D01*
G01*
X144517000Y-80675500D01*
G75*
G02*
X144317000Y-80475500I0J200000D01*
G01*
X144317000Y-79925500D01*
G75*
G02*
X144517000Y-79725500I200000J0D01*
G01*
X144917000Y-79725500D01*
G75*
G02*
X145117000Y-79925500I0J-200000D01*
G01*
G37*
%TD.AperFunction*%
%TO.P,R3,1*%
%TO.N,/A1*%
%TA.AperFunction,SMDPad,CuDef*%
G36*
G01*
X146767000Y-79925500D02*
X146767000Y-80475500D01*
G75*
G02*
X146567000Y-80675500I-200000J0D01*
G01*
X146167000Y-80675500D01*
G75*
G02*
X145967000Y-80475500I0J200000D01*
G01*
X145967000Y-79925500D01*
G75*
G02*
X146167000Y-79725500I200000J0D01*
G01*
X146567000Y-79725500D01*
G75*
G02*
X146767000Y-79925500I0J-200000D01*
G01*
G37*
%TD.AperFunction*%
%TD*%
%TO.P,R2,2*%
%TO.N,Net-(D2-Pad2)*%
%TA.AperFunction,SMDPad,CuDef*%
G36*
G01*
X149015000Y-80475500D02*
X149015000Y-79925500D01*
G75*
G02*
X149215000Y-79725500I200000J0D01*
G01*
X149615000Y-79725500D01*
G75*
G02*
X149815000Y-79925500I0J-200000D01*
G01*
X149815000Y-80475500D01*
G75*
G02*
X149615000Y-80675500I-200000J0D01*
G01*
X149215000Y-80675500D01*
G75*
G02*
X149015000Y-80475500I0J200000D01*
G01*
G37*
%TD.AperFunction*%
%TO.P,R2,1*%
%TO.N,/A2*%
%TA.AperFunction,SMDPad,CuDef*%
G36*
G01*
X147365000Y-80475500D02*
X147365000Y-79925500D01*
G75*
G02*
X147565000Y-79725500I200000J0D01*
G01*
X147965000Y-79725500D01*
G75*
G02*
X148165000Y-79925500I0J-200000D01*
G01*
X148165000Y-80475500D01*
G75*
G02*
X147965000Y-80675500I-200000J0D01*
G01*
X147565000Y-80675500D01*
G75*
G02*
X147365000Y-80475500I0J200000D01*
G01*
G37*
%TD.AperFunction*%
%TD*%
%TO.P,R1,2*%
%TO.N,GND*%
%TA.AperFunction,SMDPad,CuDef*%
G36*
G01*
X155427000Y-67227000D02*
X155977000Y-67227000D01*
G75*
G02*
X156177000Y-67427000I0J-200000D01*
G01*
X156177000Y-67827000D01*
G75*
G02*
X155977000Y-68027000I-200000J0D01*
G01*
X155427000Y-68027000D01*
G75*
G02*
X155227000Y-67827000I0J200000D01*
G01*
X155227000Y-67427000D01*
G75*
G02*
X155427000Y-67227000I200000J0D01*
G01*
G37*
%TD.AperFunction*%
%TO.P,R1,1*%
%TO.N,/A3*%
%TA.AperFunction,SMDPad,CuDef*%
G36*
G01*
X155427000Y-65577000D02*
X155977000Y-65577000D01*
G75*
G02*
X156177000Y-65777000I0J-200000D01*
G01*
X156177000Y-66177000D01*
G75*
G02*
X155977000Y-66377000I-200000J0D01*
G01*
X155427000Y-66377000D01*
G75*
G02*
X155227000Y-66177000I0J200000D01*
G01*
X155227000Y-65777000D01*
G75*
G02*
X155427000Y-65577000I200000J0D01*
G01*
G37*
%TD.AperFunction*%
%TD*%
D12*
%TO.P,DWM1,24*%
%TO.N,GND*%
X153366000Y-63336200D03*
%TO.P,DWM1,23*%
X153366000Y-64736200D03*
%TO.P,DWM1,22*%
%TO.N,/A3*%
X153366000Y-66136200D03*
%TO.P,DWM1,21*%
%TO.N,GND*%
X153366000Y-67536200D03*
%TO.P,DWM1,20*%
%TO.N,/A4(SCK)*%
X153366000Y-68936200D03*
%TO.P,DWM1,19*%
%TO.N,/A5(MISO)*%
X153366000Y-70336200D03*
%TO.P,DWM1,18*%
%TO.N,/A6(MOSI)*%
X153366000Y-71735000D03*
%TO.P,DWM1,17*%
%TO.N,/A7(SS)*%
X153366000Y-73135000D03*
D13*
%TO.P,DWM1,16*%
%TO.N,GND*%
X151966000Y-75431200D03*
%TO.P,DWM1,15*%
%TO.N,Net-(DWM1-Pad15)*%
X150566000Y-75431200D03*
%TO.P,DWM1,14*%
%TO.N,Net-(DWM1-Pad14)*%
X149166000Y-75431200D03*
%TO.P,DWM1,13*%
%TO.N,/A2*%
X147766000Y-75431200D03*
%TO.P,DWM1,12*%
%TO.N,/A1*%
X146366000Y-75431200D03*
%TO.P,DWM1,11*%
%TO.N,Net-(DWM1-Pad11)*%
X144966000Y-75431200D03*
%TO.P,DWM1,10*%
%TO.N,/D7*%
X143566000Y-75431200D03*
%TO.P,DWM1,9*%
%TO.N,/D6*%
X142166000Y-75431200D03*
D12*
%TO.P,DWM1,8*%
%TO.N,GND*%
X140766000Y-73136200D03*
%TO.P,DWM1,7*%
%TO.N,+3V3*%
X140766000Y-71736200D03*
%TO.P,DWM1,6*%
X140766000Y-70336200D03*
%TO.P,DWM1,5*%
X140766000Y-68936200D03*
%TO.P,DWM1,4*%
%TO.N,/D2*%
X140766000Y-67536200D03*
%TO.P,DWM1,3*%
%TO.N,/D3*%
X140766000Y-66136200D03*
%TO.P,DWM1,2*%
%TO.N,/D4*%
X140766000Y-64736200D03*
%TO.P,DWM1,1*%
%TO.N,/D5*%
X140766000Y-63336200D03*
%TD*%
D14*
%TO.N,GND*%
X144780000Y-84328000D03*
X149352000Y-84328000D03*
X138430000Y-69342000D03*
X151511000Y-73152000D03*
X150622000Y-73533000D03*
X145669000Y-73533000D03*
X151511000Y-67564000D03*
X151511000Y-64770000D03*
X142621000Y-73152000D03*
X148463000Y-73533000D03*
X142621000Y-70358000D03*
X142621000Y-67564000D03*
X142621000Y-64770000D03*
X151511000Y-70358000D03*
X148463000Y-70358000D03*
X145669000Y-70358000D03*
X148463000Y-67564000D03*
X145669000Y-67564000D03*
X148463000Y-64770000D03*
X145669000Y-64770000D03*
X143510000Y-73533000D03*
X143637000Y-106680000D03*
X143637000Y-106680000D03*
X143637000Y-106680000D03*
X143637000Y-106680000D03*
%TO.N,/D6*%
X142176500Y-90170000D03*
%TO.N,/D7*%
X143573500Y-90170000D03*
%TD*%
D15*
%TO.N,GND*%
X153456800Y-67627000D02*
X153366000Y-67536200D01*
X155702000Y-67627000D02*
X152821800Y-67627000D01*
D16*
X153332200Y-64770000D02*
X153366000Y-64736200D01*
X151511000Y-64770000D02*
X153332200Y-64770000D01*
X153338200Y-67564000D02*
X153366000Y-67536200D01*
X151511000Y-67564000D02*
X153338200Y-67564000D01*
X142605200Y-73136200D02*
X142621000Y-73152000D01*
X140766000Y-73136200D02*
X142605200Y-73136200D01*
D15*
X144780000Y-83210500D02*
X144716500Y-83147000D01*
X144780000Y-84328000D02*
X144780000Y-83210500D01*
X149352000Y-83236000D02*
X149415500Y-83172500D01*
X149352000Y-84328000D02*
X149352000Y-83236000D01*
D16*
X153366000Y-63336200D02*
X151547800Y-63336200D01*
X151690999Y-75156199D02*
X151690999Y-73712999D01*
X151966000Y-75431200D02*
X151690999Y-75156199D01*
X151690999Y-73712999D02*
X150622000Y-72644000D01*
X138430000Y-69342000D02*
X138430000Y-70205000D01*
D15*
X143637000Y-106680000D02*
X144627500Y-106680000D01*
%TO.N,/A3*%
X153525200Y-65977000D02*
X153366000Y-66136200D01*
X155702000Y-65977000D02*
X152890200Y-65977000D01*
X157211029Y-89041971D02*
X154686000Y-91567000D01*
X157211029Y-67486029D02*
X157211029Y-89041971D01*
X155702000Y-65977000D02*
X157211029Y-67486029D01*
%TO.N,/A2*%
X147765000Y-75432200D02*
X147766000Y-75431200D01*
X147765000Y-80200500D02*
X147765000Y-75432200D01*
X147765000Y-87186000D02*
X154686000Y-94107000D01*
X147765000Y-80200500D02*
X147765000Y-87186000D01*
%TO.N,/A1*%
X146366000Y-75431200D02*
X146424200Y-75431200D01*
X146424200Y-75431200D02*
X146367000Y-75488400D01*
X146367000Y-75432200D02*
X146366000Y-75431200D01*
X146367000Y-80200500D02*
X146367000Y-75432200D01*
X146367000Y-88328000D02*
X154686000Y-96647000D01*
X146367000Y-80200500D02*
X146367000Y-88328000D01*
D16*
%TO.N,+3V3*%
X138430000Y-73335202D02*
X138430000Y-71755000D01*
X140747200Y-71755000D02*
X140766000Y-71736200D01*
X138430000Y-71755000D02*
X140747200Y-71755000D01*
X140766000Y-71736200D02*
X140766000Y-70336200D01*
X140766000Y-70336200D02*
X140766000Y-68936200D01*
X154686000Y-104267000D02*
X141215999Y-90796999D01*
X141215999Y-90796999D02*
X141215999Y-76121201D01*
X141215999Y-76121201D02*
X138430000Y-73335202D01*
X152273000Y-106680000D02*
X154686000Y-104267000D01*
X149224000Y-106680000D02*
X152273000Y-106680000D01*
D15*
%TO.N,Net-(D2-Pad2)*%
X149415000Y-81597000D02*
X149415500Y-81597500D01*
X149415000Y-80200500D02*
X149415000Y-81597000D01*
%TO.N,Net-(D1-Pad2)*%
X144717000Y-81571500D02*
X144716500Y-81572000D01*
X144717000Y-80200500D02*
X144717000Y-81571500D01*
%TO.N,/A4(SCK)*%
X156761020Y-86951980D02*
X154686000Y-89027000D01*
X156761020Y-70856220D02*
X156761020Y-86951980D01*
X154841000Y-68936200D02*
X156761020Y-70856220D01*
X153366000Y-68936200D02*
X154841000Y-68936200D01*
%TO.N,/A5(MISO)*%
X156311010Y-84861990D02*
X154686000Y-86487000D01*
X156311010Y-71806210D02*
X156311010Y-84861990D01*
X154841000Y-70336200D02*
X156311010Y-71806210D01*
X153366000Y-70336200D02*
X154841000Y-70336200D01*
%TO.N,/A6(MOSI)*%
X155861001Y-82771999D02*
X154686000Y-83947000D01*
X155861001Y-72755001D02*
X155861001Y-82771999D01*
X154841000Y-71735000D02*
X155861001Y-72755001D01*
X153366000Y-71735000D02*
X154841000Y-71735000D01*
%TO.N,/A7(SS)*%
X154686000Y-81152002D02*
X154686000Y-81407000D01*
X153366000Y-79832002D02*
X154686000Y-81152002D01*
X153366000Y-73135000D02*
X153366000Y-79832002D01*
%TO.N,/D6*%
X142166000Y-90159500D02*
X142176500Y-90170000D01*
X142166000Y-75431200D02*
X142166000Y-90159500D01*
%TO.N,/D7*%
X143566000Y-75431200D02*
X143630200Y-75431200D01*
X143566000Y-90162500D02*
X143573500Y-90170000D01*
X143566000Y-75431200D02*
X143566000Y-90162500D01*
%TO.N,/D2*%
X137629990Y-79590990D02*
X139446000Y-81407000D01*
X137629990Y-69197210D02*
X137629990Y-79590990D01*
X139291000Y-67536200D02*
X137629990Y-69197210D01*
X140766000Y-67536200D02*
X139291000Y-67536200D01*
%TO.N,/D3*%
X137179980Y-81680980D02*
X139446000Y-83947000D01*
X137179980Y-68247220D02*
X137179980Y-81680980D01*
X139291000Y-66136200D02*
X137179980Y-68247220D01*
X140766000Y-66136200D02*
X139291000Y-66136200D01*
%TO.N,/D4*%
X137892300Y-64736200D02*
X140766000Y-64736200D01*
X136729970Y-65898530D02*
X137892300Y-64736200D01*
X136729970Y-83770970D02*
X136729970Y-65898530D01*
X139446000Y-86487000D02*
X136729970Y-83770970D01*
%TO.N,/D5*%
X136279960Y-85860960D02*
X139446000Y-89027000D01*
X136279960Y-65712130D02*
X136279960Y-85860960D01*
X138655890Y-63336200D02*
X140766000Y-63336200D01*
X136279960Y-65712130D02*
X138655890Y-63336200D01*
%TO.N,Net-(D3-Pad2)*%
X146202500Y-106680000D02*
X147574000Y-106680000D01*
%TD*%
D17*
%TO.N,GND*%
X151511000Y-63616950D02*
X151506000Y-63621950D01*
X151502928Y-63836200D01*
X151511000Y-63918159D01*
X151511000Y-64154241D01*
X151502928Y-64236200D01*
X151506000Y-64450450D01*
X151511000Y-64455450D01*
X151511000Y-65016950D01*
X151506000Y-65021950D01*
X151502928Y-65236200D01*
X151511000Y-65318159D01*
X151511000Y-65554241D01*
X151502928Y-65636200D01*
X151502928Y-66636200D01*
X151511000Y-66718159D01*
X151511000Y-66954241D01*
X151502928Y-67036200D01*
X151506000Y-67250450D01*
X151511000Y-67255450D01*
X151511000Y-67816950D01*
X151506000Y-67821950D01*
X151502928Y-68036200D01*
X151511000Y-68118159D01*
X151511000Y-68354241D01*
X151502928Y-68436200D01*
X151502928Y-69436200D01*
X151511000Y-69518159D01*
X151511000Y-69754241D01*
X151502928Y-69836200D01*
X151502928Y-70836200D01*
X151511000Y-70918159D01*
X151511000Y-71153041D01*
X151502928Y-71235000D01*
X151502928Y-72235000D01*
X151511000Y-72316959D01*
X151511000Y-72553041D01*
X151502928Y-72635000D01*
X151502928Y-73533000D01*
X142627592Y-73533000D01*
X142626000Y-73421950D01*
X142621000Y-73416950D01*
X142621000Y-72855450D01*
X142626000Y-72850450D01*
X142629072Y-72636200D01*
X142621000Y-72554241D01*
X142621000Y-72318159D01*
X142629072Y-72236200D01*
X142629072Y-71236200D01*
X142621000Y-71154241D01*
X142621000Y-70918159D01*
X142629072Y-70836200D01*
X142629072Y-69836200D01*
X142621000Y-69754241D01*
X142621000Y-69518159D01*
X142629072Y-69436200D01*
X142629072Y-68436200D01*
X142621000Y-68354241D01*
X142621000Y-68118159D01*
X142629072Y-68036200D01*
X142629072Y-67036200D01*
X142621000Y-66954241D01*
X142621000Y-66718159D01*
X142629072Y-66636200D01*
X142629072Y-65636200D01*
X142621000Y-65554241D01*
X142621000Y-65318159D01*
X142629072Y-65236200D01*
X142629072Y-64236200D01*
X142621000Y-64154241D01*
X142621000Y-63918159D01*
X142629072Y-63836200D01*
X142629072Y-63169000D01*
X151511000Y-63169000D01*
X151511000Y-63616950D01*
%TA.AperFunction,Conductor*%
D18*
G36*
X151511000Y-63616950D02*
G01*
X151506000Y-63621950D01*
X151502928Y-63836200D01*
X151511000Y-63918159D01*
X151511000Y-64154241D01*
X151502928Y-64236200D01*
X151506000Y-64450450D01*
X151511000Y-64455450D01*
X151511000Y-65016950D01*
X151506000Y-65021950D01*
X151502928Y-65236200D01*
X151511000Y-65318159D01*
X151511000Y-65554241D01*
X151502928Y-65636200D01*
X151502928Y-66636200D01*
X151511000Y-66718159D01*
X151511000Y-66954241D01*
X151502928Y-67036200D01*
X151506000Y-67250450D01*
X151511000Y-67255450D01*
X151511000Y-67816950D01*
X151506000Y-67821950D01*
X151502928Y-68036200D01*
X151511000Y-68118159D01*
X151511000Y-68354241D01*
X151502928Y-68436200D01*
X151502928Y-69436200D01*
X151511000Y-69518159D01*
X151511000Y-69754241D01*
X151502928Y-69836200D01*
X151502928Y-70836200D01*
X151511000Y-70918159D01*
X151511000Y-71153041D01*
X151502928Y-71235000D01*
X151502928Y-72235000D01*
X151511000Y-72316959D01*
X151511000Y-72553041D01*
X151502928Y-72635000D01*
X151502928Y-73533000D01*
X142627592Y-73533000D01*
X142626000Y-73421950D01*
X142621000Y-73416950D01*
X142621000Y-72855450D01*
X142626000Y-72850450D01*
X142629072Y-72636200D01*
X142621000Y-72554241D01*
X142621000Y-72318159D01*
X142629072Y-72236200D01*
X142629072Y-71236200D01*
X142621000Y-71154241D01*
X142621000Y-70918159D01*
X142629072Y-70836200D01*
X142629072Y-69836200D01*
X142621000Y-69754241D01*
X142621000Y-69518159D01*
X142629072Y-69436200D01*
X142629072Y-68436200D01*
X142621000Y-68354241D01*
X142621000Y-68118159D01*
X142629072Y-68036200D01*
X142629072Y-67036200D01*
X142621000Y-66954241D01*
X142621000Y-66718159D01*
X142629072Y-66636200D01*
X142629072Y-65636200D01*
X142621000Y-65554241D01*
X142621000Y-65318159D01*
X142629072Y-65236200D01*
X142629072Y-64236200D01*
X142621000Y-64154241D01*
X142621000Y-63918159D01*
X142629072Y-63836200D01*
X142629072Y-63169000D01*
X151511000Y-63169000D01*
X151511000Y-63616950D01*
G37*
%TD.AperFunction*%
%TD*%
M02*
